<mxfile host="app.diagrams.net" modified="2021-12-04T16:59:23.965Z" agent="5.0 (Windows NT 10.0; Win64; x64) AppleWebKit/537.36 (KHTML, like Gecko) Chrome/96.0.4664.45 Safari/537.36" etag="bI2xJqiSAJ4xcOZnpHfI" version="15.8.6" type="github">
  <diagram id="LFOssBf-Iqy-pYztze1p" name="Page-1">
    <mxGraphModel dx="1038" dy="489" grid="1" gridSize="10" guides="1" tooltips="1" connect="1" arrows="1" fold="1" page="1" pageScale="1" pageWidth="1654" pageHeight="1169" math="0" shadow="0">
      <root>
        <mxCell id="0" />
        <mxCell id="1" parent="0" />
        <mxCell id="KLTarPtfbYYSUBeI-vb6-21" value="" style="edgeStyle=orthogonalEdgeStyle;rounded=0;orthogonalLoop=1;jettySize=auto;html=1;endArrow=none;endFill=0;" parent="1" source="KLTarPtfbYYSUBeI-vb6-1" target="KLTarPtfbYYSUBeI-vb6-19" edge="1">
          <mxGeometry relative="1" as="geometry" />
        </mxCell>
        <mxCell id="KLTarPtfbYYSUBeI-vb6-38" value="" style="edgeStyle=orthogonalEdgeStyle;rounded=0;orthogonalLoop=1;jettySize=auto;html=1;endArrow=none;endFill=0;" parent="1" source="KLTarPtfbYYSUBeI-vb6-1" target="KLTarPtfbYYSUBeI-vb6-37" edge="1">
          <mxGeometry relative="1" as="geometry" />
        </mxCell>
        <mxCell id="KLTarPtfbYYSUBeI-vb6-92" style="edgeStyle=orthogonalEdgeStyle;rounded=0;orthogonalLoop=1;jettySize=auto;html=1;endArrow=none;endFill=0;" parent="1" source="KLTarPtfbYYSUBeI-vb6-1" target="KLTarPtfbYYSUBeI-vb6-63" edge="1">
          <mxGeometry relative="1" as="geometry">
            <Array as="points">
              <mxPoint x="910" y="580" />
            </Array>
          </mxGeometry>
        </mxCell>
        <mxCell id="KLTarPtfbYYSUBeI-vb6-94" style="edgeStyle=orthogonalEdgeStyle;rounded=0;orthogonalLoop=1;jettySize=auto;html=1;entryX=0;entryY=0.5;entryDx=0;entryDy=0;exitX=0.75;exitY=1;exitDx=0;exitDy=0;endArrow=none;endFill=0;" parent="1" source="KLTarPtfbYYSUBeI-vb6-1" target="KLTarPtfbYYSUBeI-vb6-73" edge="1">
          <mxGeometry relative="1" as="geometry" />
        </mxCell>
        <mxCell id="KLTarPtfbYYSUBeI-vb6-95" style="edgeStyle=orthogonalEdgeStyle;rounded=0;orthogonalLoop=1;jettySize=auto;html=1;entryX=0;entryY=0.5;entryDx=0;entryDy=0;endArrow=none;endFill=0;" parent="1" source="KLTarPtfbYYSUBeI-vb6-1" target="KLTarPtfbYYSUBeI-vb6-83" edge="1">
          <mxGeometry relative="1" as="geometry">
            <Array as="points">
              <mxPoint x="710" y="1000" />
            </Array>
          </mxGeometry>
        </mxCell>
        <mxCell id="KLTarPtfbYYSUBeI-vb6-1" value="Country" style="rounded=0;whiteSpace=wrap;html=1;" parent="1" vertex="1">
          <mxGeometry x="660" y="530" width="120" height="60" as="geometry" />
        </mxCell>
        <mxCell id="KLTarPtfbYYSUBeI-vb6-2" value="Name" style="ellipse;whiteSpace=wrap;html=1;fillColor=#dae8fc;strokeColor=#6c8ebf;" parent="1" vertex="1">
          <mxGeometry x="580" y="420" width="90" height="60" as="geometry" />
        </mxCell>
        <mxCell id="KLTarPtfbYYSUBeI-vb6-5" value="" style="endArrow=none;html=1;rounded=0;entryX=0;entryY=0;entryDx=0;entryDy=0;exitX=0.5;exitY=1;exitDx=0;exitDy=0;" parent="1" source="KLTarPtfbYYSUBeI-vb6-2" target="KLTarPtfbYYSUBeI-vb6-1" edge="1">
          <mxGeometry width="50" height="50" relative="1" as="geometry">
            <mxPoint x="590" y="460" as="sourcePoint" />
            <mxPoint x="840" y="520" as="targetPoint" />
          </mxGeometry>
        </mxCell>
        <mxCell id="KLTarPtfbYYSUBeI-vb6-6" value="PK" style="ellipse;whiteSpace=wrap;html=1;fillColor=#fff2cc;strokeColor=#d6b656;" parent="1" vertex="1">
          <mxGeometry x="150" y="330" width="90" height="60" as="geometry" />
        </mxCell>
        <mxCell id="KLTarPtfbYYSUBeI-vb6-7" value="FK" style="ellipse;whiteSpace=wrap;html=1;fillColor=#dae8fc;strokeColor=#6c8ebf;" parent="1" vertex="1">
          <mxGeometry x="260" y="330" width="90" height="60" as="geometry" />
        </mxCell>
        <mxCell id="KLTarPtfbYYSUBeI-vb6-9" value="Surface" style="ellipse;whiteSpace=wrap;html=1;" parent="1" vertex="1">
          <mxGeometry x="675" y="420" width="90" height="60" as="geometry" />
        </mxCell>
        <mxCell id="KLTarPtfbYYSUBeI-vb6-10" value="" style="endArrow=none;html=1;rounded=0;exitX=0.5;exitY=1;exitDx=0;exitDy=0;entryX=0.5;entryY=0;entryDx=0;entryDy=0;" parent="1" source="KLTarPtfbYYSUBeI-vb6-9" target="KLTarPtfbYYSUBeI-vb6-1" edge="1">
          <mxGeometry width="50" height="50" relative="1" as="geometry">
            <mxPoint x="910" y="540" as="sourcePoint" />
            <mxPoint x="670" y="500" as="targetPoint" />
          </mxGeometry>
        </mxCell>
        <mxCell id="KLTarPtfbYYSUBeI-vb6-15" value="Population" style="ellipse;whiteSpace=wrap;html=1;" parent="1" vertex="1">
          <mxGeometry x="770" y="420" width="90" height="60" as="geometry" />
        </mxCell>
        <mxCell id="KLTarPtfbYYSUBeI-vb6-16" value="" style="endArrow=none;html=1;rounded=0;exitX=0.5;exitY=1;exitDx=0;exitDy=0;entryX=1;entryY=0;entryDx=0;entryDy=0;" parent="1" source="KLTarPtfbYYSUBeI-vb6-15" target="KLTarPtfbYYSUBeI-vb6-1" edge="1">
          <mxGeometry width="50" height="50" relative="1" as="geometry">
            <mxPoint x="1060" y="540" as="sourcePoint" />
            <mxPoint x="870" y="530" as="targetPoint" />
          </mxGeometry>
        </mxCell>
        <mxCell id="KLTarPtfbYYSUBeI-vb6-29" style="edgeStyle=orthogonalEdgeStyle;rounded=0;orthogonalLoop=1;jettySize=auto;html=1;endArrow=none;endFill=0;" parent="1" source="KLTarPtfbYYSUBeI-vb6-19" target="KLTarPtfbYYSUBeI-vb6-26" edge="1">
          <mxGeometry relative="1" as="geometry" />
        </mxCell>
        <mxCell id="KLTarPtfbYYSUBeI-vb6-19" value="Has Agric Area" style="rhombus;whiteSpace=wrap;html=1;" parent="1" vertex="1">
          <mxGeometry x="1050" y="390" width="100" height="90" as="geometry" />
        </mxCell>
        <mxCell id="KLTarPtfbYYSUBeI-vb6-22" value="id" style="ellipse;whiteSpace=wrap;html=1;fillColor=#fff2cc;strokeColor=#d6b656;" parent="1" vertex="1">
          <mxGeometry x="480" y="420" width="90" height="60" as="geometry" />
        </mxCell>
        <mxCell id="KLTarPtfbYYSUBeI-vb6-23" value="" style="endArrow=none;html=1;rounded=0;exitX=0.5;exitY=1;exitDx=0;exitDy=0;entryX=0;entryY=0.25;entryDx=0;entryDy=0;" parent="1" source="KLTarPtfbYYSUBeI-vb6-22" target="KLTarPtfbYYSUBeI-vb6-1" edge="1">
          <mxGeometry width="50" height="50" relative="1" as="geometry">
            <mxPoint x="770" y="540" as="sourcePoint" />
            <mxPoint x="490" y="530" as="targetPoint" />
          </mxGeometry>
        </mxCell>
        <mxCell id="KLTarPtfbYYSUBeI-vb6-24" value="Code" style="ellipse;whiteSpace=wrap;html=1;" parent="1" vertex="1">
          <mxGeometry x="870" y="420" width="90" height="60" as="geometry" />
        </mxCell>
        <mxCell id="KLTarPtfbYYSUBeI-vb6-25" value="" style="endArrow=none;html=1;rounded=0;exitX=0.5;exitY=1;exitDx=0;exitDy=0;" parent="1" source="KLTarPtfbYYSUBeI-vb6-24" target="KLTarPtfbYYSUBeI-vb6-1" edge="1">
          <mxGeometry width="50" height="50" relative="1" as="geometry">
            <mxPoint x="1160" y="540" as="sourcePoint" />
            <mxPoint x="880" y="530" as="targetPoint" />
          </mxGeometry>
        </mxCell>
        <mxCell id="KLTarPtfbYYSUBeI-vb6-26" value="Agricultural Land" style="rounded=0;whiteSpace=wrap;html=1;" parent="1" vertex="1">
          <mxGeometry x="1270" y="405" width="120" height="60" as="geometry" />
        </mxCell>
        <mxCell id="KLTarPtfbYYSUBeI-vb6-30" value="Country_ID" style="ellipse;whiteSpace=wrap;html=1;fillColor=#dae8fc;strokeColor=#6c8ebf;" parent="1" vertex="1">
          <mxGeometry x="1160" y="305" width="90" height="60" as="geometry" />
        </mxCell>
        <mxCell id="KLTarPtfbYYSUBeI-vb6-31" value="" style="endArrow=none;html=1;rounded=0;exitX=0.5;exitY=1;exitDx=0;exitDy=0;entryX=0;entryY=0;entryDx=0;entryDy=0;" parent="1" source="KLTarPtfbYYSUBeI-vb6-30" target="KLTarPtfbYYSUBeI-vb6-26" edge="1">
          <mxGeometry width="50" height="50" relative="1" as="geometry">
            <mxPoint x="1500" y="400" as="sourcePoint" />
            <mxPoint x="1390" y="405" as="targetPoint" />
          </mxGeometry>
        </mxCell>
        <mxCell id="KLTarPtfbYYSUBeI-vb6-32" value="Year" style="ellipse;whiteSpace=wrap;html=1;" parent="1" vertex="1">
          <mxGeometry x="1380" y="305" width="90" height="60" as="geometry" />
        </mxCell>
        <mxCell id="KLTarPtfbYYSUBeI-vb6-33" value="" style="endArrow=none;html=1;rounded=0;exitX=0.5;exitY=1;exitDx=0;exitDy=0;entryX=1;entryY=0;entryDx=0;entryDy=0;" parent="1" target="KLTarPtfbYYSUBeI-vb6-26" edge="1">
          <mxGeometry width="50" height="50" relative="1" as="geometry">
            <mxPoint x="1415" y="365" as="sourcePoint" />
            <mxPoint x="1420" y="405" as="targetPoint" />
          </mxGeometry>
        </mxCell>
        <mxCell id="KLTarPtfbYYSUBeI-vb6-34" value="km2" style="ellipse;whiteSpace=wrap;html=1;" parent="1" vertex="1">
          <mxGeometry x="1270" y="305" width="90" height="60" as="geometry" />
        </mxCell>
        <mxCell id="KLTarPtfbYYSUBeI-vb6-35" value="" style="endArrow=none;html=1;rounded=0;exitX=0.5;exitY=1;exitDx=0;exitDy=0;entryX=0.5;entryY=0;entryDx=0;entryDy=0;" parent="1" source="KLTarPtfbYYSUBeI-vb6-34" target="KLTarPtfbYYSUBeI-vb6-26" edge="1">
          <mxGeometry width="50" height="50" relative="1" as="geometry">
            <mxPoint x="1600" y="390" as="sourcePoint" />
            <mxPoint x="1370" y="395" as="targetPoint" />
          </mxGeometry>
        </mxCell>
        <mxCell id="KLTarPtfbYYSUBeI-vb6-44" style="edgeStyle=orthogonalEdgeStyle;rounded=0;orthogonalLoop=1;jettySize=auto;html=1;exitX=0;exitY=0.5;exitDx=0;exitDy=0;strokeColor=default;endArrow=none;endFill=0;" parent="1" source="KLTarPtfbYYSUBeI-vb6-37" target="KLTarPtfbYYSUBeI-vb6-40" edge="1">
          <mxGeometry relative="1" as="geometry">
            <mxPoint x="280" y="685" as="sourcePoint" />
          </mxGeometry>
        </mxCell>
        <mxCell id="KLTarPtfbYYSUBeI-vb6-37" value="Has Employment by" style="rhombus;whiteSpace=wrap;html=1;" parent="1" vertex="1">
          <mxGeometry x="320" y="512.5" width="110" height="95" as="geometry" />
        </mxCell>
        <mxCell id="KLTarPtfbYYSUBeI-vb6-40" value="Employment" style="rounded=0;whiteSpace=wrap;html=1;" parent="1" vertex="1">
          <mxGeometry x="220" y="730" width="120" height="60" as="geometry" />
        </mxCell>
        <mxCell id="KLTarPtfbYYSUBeI-vb6-41" value="Name" style="ellipse;whiteSpace=wrap;html=1;fillColor=#fff2cc;strokeColor=#d6b656;" parent="1" vertex="1">
          <mxGeometry x="110" y="660" width="90" height="60" as="geometry" />
        </mxCell>
        <mxCell id="KLTarPtfbYYSUBeI-vb6-42" value="" style="endArrow=none;html=1;rounded=0;exitX=0.5;exitY=1;exitDx=0;exitDy=0;entryX=0;entryY=0.5;entryDx=0;entryDy=0;" parent="1" source="KLTarPtfbYYSUBeI-vb6-41" target="KLTarPtfbYYSUBeI-vb6-40" edge="1">
          <mxGeometry width="50" height="50" relative="1" as="geometry">
            <mxPoint x="275" y="875" as="sourcePoint" />
            <mxPoint x="85" y="865" as="targetPoint" />
          </mxGeometry>
        </mxCell>
        <mxCell id="KLTarPtfbYYSUBeI-vb6-45" value="Country_ID" style="ellipse;whiteSpace=wrap;html=1;fillColor=#dae8fc;strokeColor=#6c8ebf;" parent="1" vertex="1">
          <mxGeometry x="110" y="660" width="90" height="60" as="geometry" />
        </mxCell>
        <mxCell id="KLTarPtfbYYSUBeI-vb6-48" value="" style="endArrow=none;html=1;rounded=0;exitX=1.033;exitY=0.633;exitDx=0;exitDy=0;entryX=0;entryY=1;entryDx=0;entryDy=0;exitPerimeter=0;" parent="1" source="KLTarPtfbYYSUBeI-vb6-49" target="KLTarPtfbYYSUBeI-vb6-40" edge="1">
          <mxGeometry width="50" height="50" relative="1" as="geometry">
            <mxPoint x="115" y="810" as="sourcePoint" />
            <mxPoint x="180" y="850" as="targetPoint" />
          </mxGeometry>
        </mxCell>
        <mxCell id="KLTarPtfbYYSUBeI-vb6-49" value="Pop (%)" style="ellipse;whiteSpace=wrap;html=1;" parent="1" vertex="1">
          <mxGeometry x="40" y="730" width="90" height="60" as="geometry" />
        </mxCell>
        <mxCell id="KLTarPtfbYYSUBeI-vb6-52" value="" style="endArrow=none;html=1;rounded=0;exitX=1;exitY=0.5;exitDx=0;exitDy=0;" parent="1" source="KLTarPtfbYYSUBeI-vb6-53" edge="1">
          <mxGeometry width="50" height="50" relative="1" as="geometry">
            <mxPoint x="155" y="890" as="sourcePoint" />
            <mxPoint x="220" y="790" as="targetPoint" />
          </mxGeometry>
        </mxCell>
        <mxCell id="KLTarPtfbYYSUBeI-vb6-53" value="Child (%)" style="ellipse;whiteSpace=wrap;html=1;" parent="1" vertex="1">
          <mxGeometry x="50" y="800" width="90" height="60" as="geometry" />
        </mxCell>
        <mxCell id="KLTarPtfbYYSUBeI-vb6-55" value="Men (%)" style="ellipse;whiteSpace=wrap;html=1;" parent="1" vertex="1">
          <mxGeometry x="430" y="710" width="90" height="60" as="geometry" />
        </mxCell>
        <mxCell id="KLTarPtfbYYSUBeI-vb6-57" value="" style="endArrow=none;html=1;rounded=0;exitX=1;exitY=0.5;exitDx=0;exitDy=0;entryX=0;entryY=0.5;entryDx=0;entryDy=0;" parent="1" source="KLTarPtfbYYSUBeI-vb6-40" target="KLTarPtfbYYSUBeI-vb6-55" edge="1">
          <mxGeometry width="50" height="50" relative="1" as="geometry">
            <mxPoint x="350" y="800" as="sourcePoint" />
            <mxPoint x="400" y="750" as="targetPoint" />
          </mxGeometry>
        </mxCell>
        <mxCell id="KLTarPtfbYYSUBeI-vb6-58" value="Women (%)" style="ellipse;whiteSpace=wrap;html=1;" parent="1" vertex="1">
          <mxGeometry x="430" y="780" width="90" height="60" as="geometry" />
        </mxCell>
        <mxCell id="KLTarPtfbYYSUBeI-vb6-59" value="" style="endArrow=none;html=1;rounded=0;exitX=1;exitY=1;exitDx=0;exitDy=0;entryX=0.022;entryY=0.333;entryDx=0;entryDy=0;entryPerimeter=0;" parent="1" source="KLTarPtfbYYSUBeI-vb6-40" target="KLTarPtfbYYSUBeI-vb6-58" edge="1">
          <mxGeometry width="50" height="50" relative="1" as="geometry">
            <mxPoint x="350" y="830" as="sourcePoint" />
            <mxPoint x="410" y="820" as="targetPoint" />
          </mxGeometry>
        </mxCell>
        <mxCell id="KLTarPtfbYYSUBeI-vb6-62" style="edgeStyle=orthogonalEdgeStyle;rounded=0;orthogonalLoop=1;jettySize=auto;html=1;endArrow=none;endFill=0;" parent="1" source="KLTarPtfbYYSUBeI-vb6-63" target="KLTarPtfbYYSUBeI-vb6-64" edge="1">
          <mxGeometry relative="1" as="geometry" />
        </mxCell>
        <mxCell id="KLTarPtfbYYSUBeI-vb6-63" value="Has Forest&amp;nbsp; Area" style="rhombus;whiteSpace=wrap;html=1;" parent="1" vertex="1">
          <mxGeometry x="1050" y="567.5" width="100" height="90" as="geometry" />
        </mxCell>
        <mxCell id="KLTarPtfbYYSUBeI-vb6-64" value="Forest Area" style="rounded=0;whiteSpace=wrap;html=1;" parent="1" vertex="1">
          <mxGeometry x="1320" y="620" width="120" height="60" as="geometry" />
        </mxCell>
        <mxCell id="KLTarPtfbYYSUBeI-vb6-65" value="Country_ID" style="ellipse;whiteSpace=wrap;html=1;fillColor=#dae8fc;strokeColor=#6c8ebf;" parent="1" vertex="1">
          <mxGeometry x="1210" y="520" width="90" height="60" as="geometry" />
        </mxCell>
        <mxCell id="KLTarPtfbYYSUBeI-vb6-66" value="" style="endArrow=none;html=1;rounded=0;exitX=0.5;exitY=1;exitDx=0;exitDy=0;entryX=0;entryY=0;entryDx=0;entryDy=0;" parent="1" source="KLTarPtfbYYSUBeI-vb6-65" target="KLTarPtfbYYSUBeI-vb6-64" edge="1">
          <mxGeometry width="50" height="50" relative="1" as="geometry">
            <mxPoint x="1550" y="615" as="sourcePoint" />
            <mxPoint x="1440" y="620" as="targetPoint" />
          </mxGeometry>
        </mxCell>
        <mxCell id="KLTarPtfbYYSUBeI-vb6-67" value="Year" style="ellipse;whiteSpace=wrap;html=1;" parent="1" vertex="1">
          <mxGeometry x="1430" y="520" width="90" height="60" as="geometry" />
        </mxCell>
        <mxCell id="KLTarPtfbYYSUBeI-vb6-68" value="" style="endArrow=none;html=1;rounded=0;exitX=0.5;exitY=1;exitDx=0;exitDy=0;entryX=1;entryY=0;entryDx=0;entryDy=0;" parent="1" target="KLTarPtfbYYSUBeI-vb6-64" edge="1">
          <mxGeometry width="50" height="50" relative="1" as="geometry">
            <mxPoint x="1465" y="580" as="sourcePoint" />
            <mxPoint x="1470" y="620" as="targetPoint" />
          </mxGeometry>
        </mxCell>
        <mxCell id="KLTarPtfbYYSUBeI-vb6-69" value="km2" style="ellipse;whiteSpace=wrap;html=1;" parent="1" vertex="1">
          <mxGeometry x="1320" y="520" width="90" height="60" as="geometry" />
        </mxCell>
        <mxCell id="KLTarPtfbYYSUBeI-vb6-70" value="" style="endArrow=none;html=1;rounded=0;exitX=0.5;exitY=1;exitDx=0;exitDy=0;entryX=0.5;entryY=0;entryDx=0;entryDy=0;" parent="1" source="KLTarPtfbYYSUBeI-vb6-69" target="KLTarPtfbYYSUBeI-vb6-64" edge="1">
          <mxGeometry width="50" height="50" relative="1" as="geometry">
            <mxPoint x="1650" y="605" as="sourcePoint" />
            <mxPoint x="1420" y="610" as="targetPoint" />
          </mxGeometry>
        </mxCell>
        <mxCell id="KLTarPtfbYYSUBeI-vb6-72" style="edgeStyle=orthogonalEdgeStyle;rounded=0;orthogonalLoop=1;jettySize=auto;html=1;endArrow=none;endFill=0;" parent="1" source="KLTarPtfbYYSUBeI-vb6-73" target="KLTarPtfbYYSUBeI-vb6-74" edge="1">
          <mxGeometry relative="1" as="geometry" />
        </mxCell>
        <mxCell id="KLTarPtfbYYSUBeI-vb6-73" value="Has Forest&amp;nbsp; Area" style="rhombus;whiteSpace=wrap;html=1;" parent="1" vertex="1">
          <mxGeometry x="1013.2" y="746.44" width="100" height="90" as="geometry" />
        </mxCell>
        <mxCell id="KLTarPtfbYYSUBeI-vb6-74" value="Forest Area" style="rounded=0;whiteSpace=wrap;html=1;" parent="1" vertex="1">
          <mxGeometry x="1296.8" y="800" width="120" height="60" as="geometry" />
        </mxCell>
        <mxCell id="KLTarPtfbYYSUBeI-vb6-75" value="Country_ID" style="ellipse;whiteSpace=wrap;html=1;fillColor=#dae8fc;strokeColor=#6c8ebf;" parent="1" vertex="1">
          <mxGeometry x="1186.8" y="700" width="90" height="60" as="geometry" />
        </mxCell>
        <mxCell id="KLTarPtfbYYSUBeI-vb6-76" value="" style="endArrow=none;html=1;rounded=0;exitX=0.5;exitY=1;exitDx=0;exitDy=0;entryX=0;entryY=0;entryDx=0;entryDy=0;" parent="1" source="KLTarPtfbYYSUBeI-vb6-75" target="KLTarPtfbYYSUBeI-vb6-74" edge="1">
          <mxGeometry width="50" height="50" relative="1" as="geometry">
            <mxPoint x="1526.8" y="795" as="sourcePoint" />
            <mxPoint x="1416.8" y="800" as="targetPoint" />
          </mxGeometry>
        </mxCell>
        <mxCell id="KLTarPtfbYYSUBeI-vb6-77" value="Year" style="ellipse;whiteSpace=wrap;html=1;" parent="1" vertex="1">
          <mxGeometry x="1406.8" y="700" width="90" height="60" as="geometry" />
        </mxCell>
        <mxCell id="KLTarPtfbYYSUBeI-vb6-78" value="" style="endArrow=none;html=1;rounded=0;exitX=0.5;exitY=1;exitDx=0;exitDy=0;entryX=1;entryY=0;entryDx=0;entryDy=0;" parent="1" target="KLTarPtfbYYSUBeI-vb6-74" edge="1">
          <mxGeometry width="50" height="50" relative="1" as="geometry">
            <mxPoint x="1441.8" y="760" as="sourcePoint" />
            <mxPoint x="1446.8" y="800" as="targetPoint" />
          </mxGeometry>
        </mxCell>
        <mxCell id="KLTarPtfbYYSUBeI-vb6-79" value="km2" style="ellipse;whiteSpace=wrap;html=1;" parent="1" vertex="1">
          <mxGeometry x="1296.8" y="700" width="90" height="60" as="geometry" />
        </mxCell>
        <mxCell id="KLTarPtfbYYSUBeI-vb6-80" value="" style="endArrow=none;html=1;rounded=0;exitX=0.5;exitY=1;exitDx=0;exitDy=0;entryX=0.5;entryY=0;entryDx=0;entryDy=0;" parent="1" source="KLTarPtfbYYSUBeI-vb6-79" target="KLTarPtfbYYSUBeI-vb6-74" edge="1">
          <mxGeometry width="50" height="50" relative="1" as="geometry">
            <mxPoint x="1626.8" y="785" as="sourcePoint" />
            <mxPoint x="1396.8" y="790" as="targetPoint" />
          </mxGeometry>
        </mxCell>
        <mxCell id="KLTarPtfbYYSUBeI-vb6-82" style="edgeStyle=orthogonalEdgeStyle;rounded=0;orthogonalLoop=1;jettySize=auto;html=1;endArrow=none;endFill=0;" parent="1" source="KLTarPtfbYYSUBeI-vb6-83" target="KLTarPtfbYYSUBeI-vb6-84" edge="1">
          <mxGeometry relative="1" as="geometry" />
        </mxCell>
        <mxCell id="KLTarPtfbYYSUBeI-vb6-83" value="Has Forest&amp;nbsp; Area" style="rhombus;whiteSpace=wrap;html=1;" parent="1" vertex="1">
          <mxGeometry x="1120" y="955" width="100" height="90" as="geometry" />
        </mxCell>
        <mxCell id="KLTarPtfbYYSUBeI-vb6-84" value="Forest Area" style="rounded=0;whiteSpace=wrap;html=1;" parent="1" vertex="1">
          <mxGeometry x="1340" y="970" width="120" height="60" as="geometry" />
        </mxCell>
        <mxCell id="KLTarPtfbYYSUBeI-vb6-85" value="Country_ID" style="ellipse;whiteSpace=wrap;html=1;fillColor=#dae8fc;strokeColor=#6c8ebf;" parent="1" vertex="1">
          <mxGeometry x="1230" y="870" width="90" height="60" as="geometry" />
        </mxCell>
        <mxCell id="KLTarPtfbYYSUBeI-vb6-86" value="" style="endArrow=none;html=1;rounded=0;exitX=0.5;exitY=1;exitDx=0;exitDy=0;entryX=0;entryY=0;entryDx=0;entryDy=0;" parent="1" source="KLTarPtfbYYSUBeI-vb6-85" target="KLTarPtfbYYSUBeI-vb6-84" edge="1">
          <mxGeometry width="50" height="50" relative="1" as="geometry">
            <mxPoint x="1570" y="965" as="sourcePoint" />
            <mxPoint x="1460" y="970" as="targetPoint" />
          </mxGeometry>
        </mxCell>
        <mxCell id="KLTarPtfbYYSUBeI-vb6-87" value="Year" style="ellipse;whiteSpace=wrap;html=1;" parent="1" vertex="1">
          <mxGeometry x="1450" y="870" width="90" height="60" as="geometry" />
        </mxCell>
        <mxCell id="KLTarPtfbYYSUBeI-vb6-88" value="" style="endArrow=none;html=1;rounded=0;exitX=0.5;exitY=1;exitDx=0;exitDy=0;entryX=1;entryY=0;entryDx=0;entryDy=0;" parent="1" target="KLTarPtfbYYSUBeI-vb6-84" edge="1">
          <mxGeometry width="50" height="50" relative="1" as="geometry">
            <mxPoint x="1485" y="930" as="sourcePoint" />
            <mxPoint x="1490" y="970" as="targetPoint" />
          </mxGeometry>
        </mxCell>
        <mxCell id="KLTarPtfbYYSUBeI-vb6-89" value="km2" style="ellipse;whiteSpace=wrap;html=1;" parent="1" vertex="1">
          <mxGeometry x="1340" y="870" width="90" height="60" as="geometry" />
        </mxCell>
        <mxCell id="KLTarPtfbYYSUBeI-vb6-90" value="" style="endArrow=none;html=1;rounded=0;exitX=0.5;exitY=1;exitDx=0;exitDy=0;entryX=0.5;entryY=0;entryDx=0;entryDy=0;" parent="1" source="KLTarPtfbYYSUBeI-vb6-89" target="KLTarPtfbYYSUBeI-vb6-84" edge="1">
          <mxGeometry width="50" height="50" relative="1" as="geometry">
            <mxPoint x="1670" y="955" as="sourcePoint" />
            <mxPoint x="1440" y="960" as="targetPoint" />
          </mxGeometry>
        </mxCell>
      </root>
    </mxGraphModel>
  </diagram>
</mxfile>
